<svg xmlns="http://www.w3.org/2000/svg" width="460" height="26" viewBox="0 0 460 26" shape-rendering="crispEdges"><rect width="460" height="26" fill="#1a1c2c"/><rect x="10" y="4" width="3" height="3" fill="#f4f4f4"/><rect x="10" y="7" width="3" height="3" fill="#f4f4f4"/><rect x="10" y="10" width="3" height="3" fill="#f4f4f4"/><rect x="4" y="13" width="3" height="3" fill="#f4f4f4"/><rect x="10" y="13" width="3" height="3" fill="#f4f4f4"/><rect x="7" y="16" width="3" height="3" fill="#f4f4f4"/><rect x="19" y="4" width="3" height="3" fill="#f4f4f4"/><rect x="22" y="4" width="3" height="3" fill="#f4f4f4"/><rect x="16" y="7" width="3" height="3" fill="#f4f4f4"/><rect x="19" y="10" width="3" height="3" fill="#f4f4f4"/><rect x="22" y="13" width="3" height="3" fill="#f4f4f4"/><rect x="16" y="16" width="3" height="3" fill="#f4f4f4"/><rect x="19" y="16" width="3" height="3" fill="#f4f4f4"/><rect x="150" y="6" width="12" height="14" fill="#a7f070"/><rect x="164" y="6" width="12" height="14" fill="#a7f070"/><rect x="178" y="6" width="12" height="14" fill="#a7f070"/><rect x="192" y="6" width="12" height="14" fill="#a7f070"/><rect x="206" y="6" width="12" height="14" fill="#a7f070"/><rect x="220" y="6" width="12" height="14" fill="#a7f070"/><rect x="234" y="6" width="12" height="14" fill="#a7f070"/><rect x="248" y="6" width="12" height="14" fill="#a7f070"/><rect x="262" y="6" width="12" height="14" fill="#a7f070"/><rect x="276" y="6" width="12" height="14" fill="#a7f070"/><rect x="290" y="6" width="12" height="14" fill="#a7f070"/><rect x="304" y="6" width="12" height="14" fill="#a7f070"/><rect x="318" y="6" width="12" height="14" fill="#a7f070"/><rect x="332" y="6" width="12" height="14" fill="#a7f070"/><rect x="346" y="6" width="12" height="14" fill="#333c57"/><rect x="360" y="6" width="12" height="14" fill="#333c57"/><rect x="374" y="6" width="12" height="14" fill="#333c57"/><rect x="388" y="6" width="12" height="14" fill="#333c57"/><rect x="402" y="6" width="12" height="14" fill="#333c57"/><rect x="416" y="6" width="12" height="14" fill="#333c57"/><g transform="translate(436,0)"></g></svg>