<svg xmlns="http://www.w3.org/2000/svg" width="460" height="26" viewBox="0 0 460 26" shape-rendering="crispEdges"><rect width="460" height="26" fill="#1a1c2c"/><rect x="4" y="4" width="3" height="3" fill="#f4f4f4"/><rect x="4" y="7" width="3" height="3" fill="#f4f4f4"/><rect x="4" y="10" width="3" height="3" fill="#f4f4f4"/><rect x="4" y="13" width="3" height="3" fill="#f4f4f4"/><rect x="4" y="16" width="3" height="3" fill="#f4f4f4"/><rect x="7" y="16" width="3" height="3" fill="#f4f4f4"/><rect x="10" y="16" width="3" height="3" fill="#f4f4f4"/><rect x="19" y="4" width="3" height="3" fill="#f4f4f4"/><rect x="16" y="7" width="3" height="3" fill="#f4f4f4"/><rect x="22" y="7" width="3" height="3" fill="#f4f4f4"/><rect x="16" y="10" width="3" height="3" fill="#f4f4f4"/><rect x="19" y="10" width="3" height="3" fill="#f4f4f4"/><rect x="22" y="10" width="3" height="3" fill="#f4f4f4"/><rect x="16" y="13" width="3" height="3" fill="#f4f4f4"/><rect x="22" y="13" width="3" height="3" fill="#f4f4f4"/><rect x="16" y="16" width="3" height="3" fill="#f4f4f4"/><rect x="22" y="16" width="3" height="3" fill="#f4f4f4"/><rect x="28" y="4" width="3" height="3" fill="#f4f4f4"/><rect x="31" y="4" width="3" height="3" fill="#f4f4f4"/><rect x="28" y="7" width="3" height="3" fill="#f4f4f4"/><rect x="34" y="7" width="3" height="3" fill="#f4f4f4"/><rect x="28" y="10" width="3" height="3" fill="#f4f4f4"/><rect x="31" y="10" width="3" height="3" fill="#f4f4f4"/><rect x="28" y="13" width="3" height="3" fill="#f4f4f4"/><rect x="34" y="13" width="3" height="3" fill="#f4f4f4"/><rect x="28" y="16" width="3" height="3" fill="#f4f4f4"/><rect x="34" y="16" width="3" height="3" fill="#f4f4f4"/><rect x="43" y="4" width="3" height="3" fill="#f4f4f4"/><rect x="40" y="7" width="3" height="3" fill="#f4f4f4"/><rect x="46" y="7" width="3" height="3" fill="#f4f4f4"/><rect x="40" y="10" width="3" height="3" fill="#f4f4f4"/><rect x="43" y="10" width="3" height="3" fill="#f4f4f4"/><rect x="46" y="10" width="3" height="3" fill="#f4f4f4"/><rect x="40" y="13" width="3" height="3" fill="#f4f4f4"/><rect x="46" y="13" width="3" height="3" fill="#f4f4f4"/><rect x="40" y="16" width="3" height="3" fill="#f4f4f4"/><rect x="46" y="16" width="3" height="3" fill="#f4f4f4"/><rect x="52" y="4" width="3" height="3" fill="#f4f4f4"/><rect x="58" y="4" width="3" height="3" fill="#f4f4f4"/><rect x="52" y="7" width="3" height="3" fill="#f4f4f4"/><rect x="58" y="7" width="3" height="3" fill="#f4f4f4"/><rect x="52" y="10" width="3" height="3" fill="#f4f4f4"/><rect x="58" y="10" width="3" height="3" fill="#f4f4f4"/><rect x="52" y="13" width="3" height="3" fill="#f4f4f4"/><rect x="58" y="13" width="3" height="3" fill="#f4f4f4"/><rect x="55" y="16" width="3" height="3" fill="#f4f4f4"/><rect x="64" y="4" width="3" height="3" fill="#f4f4f4"/><rect x="67" y="4" width="3" height="3" fill="#f4f4f4"/><rect x="70" y="4" width="3" height="3" fill="#f4f4f4"/><rect x="64" y="7" width="3" height="3" fill="#f4f4f4"/><rect x="64" y="10" width="3" height="3" fill="#f4f4f4"/><rect x="67" y="10" width="3" height="3" fill="#f4f4f4"/><rect x="64" y="13" width="3" height="3" fill="#f4f4f4"/><rect x="64" y="16" width="3" height="3" fill="#f4f4f4"/><rect x="67" y="16" width="3" height="3" fill="#f4f4f4"/><rect x="70" y="16" width="3" height="3" fill="#f4f4f4"/><rect x="76" y="4" width="3" height="3" fill="#f4f4f4"/><rect x="76" y="7" width="3" height="3" fill="#f4f4f4"/><rect x="76" y="10" width="3" height="3" fill="#f4f4f4"/><rect x="76" y="13" width="3" height="3" fill="#f4f4f4"/><rect x="76" y="16" width="3" height="3" fill="#f4f4f4"/><rect x="79" y="16" width="3" height="3" fill="#f4f4f4"/><rect x="82" y="16" width="3" height="3" fill="#f4f4f4"/><rect x="150" y="6" width="12" height="14" fill="#b13e53"/><rect x="164" y="6" width="12" height="14" fill="#b13e53"/><rect x="178" y="6" width="12" height="14" fill="#b13e53"/><rect x="192" y="6" width="12" height="14" fill="#b13e53"/><rect x="206" y="6" width="12" height="14" fill="#b13e53"/><rect x="220" y="6" width="12" height="14" fill="#b13e53"/><rect x="234" y="6" width="12" height="14" fill="#b13e53"/><rect x="248" y="6" width="12" height="14" fill="#b13e53"/><rect x="262" y="6" width="12" height="14" fill="#b13e53"/><rect x="276" y="6" width="12" height="14" fill="#b13e53"/><rect x="290" y="6" width="12" height="14" fill="#b13e53"/><rect x="304" y="6" width="12" height="14" fill="#b13e53"/><rect x="318" y="6" width="12" height="14" fill="#b13e53"/><rect x="332" y="6" width="12" height="14" fill="#b13e53"/><rect x="346" y="6" width="12" height="14" fill="#b13e53"/><rect x="360" y="6" width="12" height="14" fill="#b13e53"/><rect x="374" y="6" width="12" height="14" fill="#b13e53"/><rect x="388" y="6" width="12" height="14" fill="#333c57"/><rect x="402" y="6" width="12" height="14" fill="#333c57"/><rect x="416" y="6" width="12" height="14" fill="#333c57"/><g transform="translate(436,0)"></g></svg>